G04 #@! TF.FileFunction,Legend,Top*
%FSLAX46Y46*%
G04 Gerber Fmt 4.6, Leading zero omitted, Abs format (unit mm)*
G04 Created by KiCad (PCBNEW (2015-07-08 BZR 5908, Git 901e961)-product) date 27.10.2015 7:37:09*
%MOMM*%
G01*
G04 APERTURE LIST*
%ADD10C,0.100000*%
%ADD11C,0.300000*%
%ADD12C,0.200000*%
%ADD13C,0.150000*%
%ADD14C,0.050000*%
%ADD15C,0.080000*%
%ADD16C,2.750000*%
%ADD17R,1.000000X0.800000*%
%ADD18R,0.800000X1.000000*%
%ADD19C,2.000000*%
%ADD20R,1.800000X1.400000*%
%ADD21R,2.032000X2.032000*%
%ADD22O,2.032000X2.032000*%
%ADD23O,0.750000X0.300000*%
%ADD24O,0.300000X0.750000*%
%ADD25R,0.900000X0.900000*%
%ADD26R,0.550000X1.000000*%
%ADD27R,2.032000X1.727200*%
%ADD28O,2.032000X1.727200*%
%ADD29R,1.000000X0.550000*%
G04 APERTURE END LIST*
D10*
D11*
X53738001Y-78656571D02*
X53238001Y-77942286D01*
X52880858Y-78656571D02*
X52880858Y-77156571D01*
X53452286Y-77156571D01*
X53595144Y-77228000D01*
X53666572Y-77299429D01*
X53738001Y-77442286D01*
X53738001Y-77656571D01*
X53666572Y-77799429D01*
X53595144Y-77870857D01*
X53452286Y-77942286D01*
X52880858Y-77942286D01*
X54952286Y-78585143D02*
X54809429Y-78656571D01*
X54523715Y-78656571D01*
X54380858Y-78585143D01*
X54309429Y-78442286D01*
X54309429Y-77870857D01*
X54380858Y-77728000D01*
X54523715Y-77656571D01*
X54809429Y-77656571D01*
X54952286Y-77728000D01*
X55023715Y-77870857D01*
X55023715Y-78013714D01*
X54309429Y-78156571D01*
X55523715Y-77656571D02*
X55880858Y-78656571D01*
X56238000Y-77656571D01*
X56809429Y-78656571D02*
X56809429Y-77656571D01*
X56809429Y-77156571D02*
X56738000Y-77228000D01*
X56809429Y-77299429D01*
X56880857Y-77228000D01*
X56809429Y-77156571D01*
X56809429Y-77299429D01*
X57452286Y-78585143D02*
X57595143Y-78656571D01*
X57880858Y-78656571D01*
X58023715Y-78585143D01*
X58095143Y-78442286D01*
X58095143Y-78370857D01*
X58023715Y-78228000D01*
X57880858Y-78156571D01*
X57666572Y-78156571D01*
X57523715Y-78085143D01*
X57452286Y-77942286D01*
X57452286Y-77870857D01*
X57523715Y-77728000D01*
X57666572Y-77656571D01*
X57880858Y-77656571D01*
X58023715Y-77728000D01*
X58738001Y-78656571D02*
X58738001Y-77656571D01*
X58738001Y-77156571D02*
X58666572Y-77228000D01*
X58738001Y-77299429D01*
X58809429Y-77228000D01*
X58738001Y-77156571D01*
X58738001Y-77299429D01*
X59666573Y-78656571D02*
X59523715Y-78585143D01*
X59452287Y-78513714D01*
X59380858Y-78370857D01*
X59380858Y-77942286D01*
X59452287Y-77799429D01*
X59523715Y-77728000D01*
X59666573Y-77656571D01*
X59880858Y-77656571D01*
X60023715Y-77728000D01*
X60095144Y-77799429D01*
X60166573Y-77942286D01*
X60166573Y-78370857D01*
X60095144Y-78513714D01*
X60023715Y-78585143D01*
X59880858Y-78656571D01*
X59666573Y-78656571D01*
X60809430Y-77656571D02*
X60809430Y-78656571D01*
X60809430Y-77799429D02*
X60880858Y-77728000D01*
X61023716Y-77656571D01*
X61238001Y-77656571D01*
X61380858Y-77728000D01*
X61452287Y-77870857D01*
X61452287Y-78656571D01*
X63595144Y-77156571D02*
X63738001Y-77156571D01*
X63880858Y-77228000D01*
X63952287Y-77299429D01*
X64023716Y-77442286D01*
X64095144Y-77728000D01*
X64095144Y-78085143D01*
X64023716Y-78370857D01*
X63952287Y-78513714D01*
X63880858Y-78585143D01*
X63738001Y-78656571D01*
X63595144Y-78656571D01*
X63452287Y-78585143D01*
X63380858Y-78513714D01*
X63309430Y-78370857D01*
X63238001Y-78085143D01*
X63238001Y-77728000D01*
X63309430Y-77442286D01*
X63380858Y-77299429D01*
X63452287Y-77228000D01*
X63595144Y-77156571D01*
X65595144Y-78513714D02*
X65523715Y-78585143D01*
X65309429Y-78656571D01*
X65166572Y-78656571D01*
X64952287Y-78585143D01*
X64809429Y-78442286D01*
X64738001Y-78299429D01*
X64666572Y-78013714D01*
X64666572Y-77799429D01*
X64738001Y-77513714D01*
X64809429Y-77370857D01*
X64952287Y-77228000D01*
X65166572Y-77156571D01*
X65309429Y-77156571D01*
X65523715Y-77228000D01*
X65595144Y-77299429D01*
X66452287Y-77799429D02*
X66309429Y-77728000D01*
X66238001Y-77656571D01*
X66166572Y-77513714D01*
X66166572Y-77442286D01*
X66238001Y-77299429D01*
X66309429Y-77228000D01*
X66452287Y-77156571D01*
X66738001Y-77156571D01*
X66880858Y-77228000D01*
X66952287Y-77299429D01*
X67023715Y-77442286D01*
X67023715Y-77513714D01*
X66952287Y-77656571D01*
X66880858Y-77728000D01*
X66738001Y-77799429D01*
X66452287Y-77799429D01*
X66309429Y-77870857D01*
X66238001Y-77942286D01*
X66166572Y-78085143D01*
X66166572Y-78370857D01*
X66238001Y-78513714D01*
X66309429Y-78585143D01*
X66452287Y-78656571D01*
X66738001Y-78656571D01*
X66880858Y-78585143D01*
X66952287Y-78513714D01*
X67023715Y-78370857D01*
X67023715Y-78085143D01*
X66952287Y-77942286D01*
X66880858Y-77870857D01*
X66738001Y-77799429D01*
X68523715Y-78513714D02*
X68452286Y-78585143D01*
X68238000Y-78656571D01*
X68095143Y-78656571D01*
X67880858Y-78585143D01*
X67738000Y-78442286D01*
X67666572Y-78299429D01*
X67595143Y-78013714D01*
X67595143Y-77799429D01*
X67666572Y-77513714D01*
X67738000Y-77370857D01*
X67880858Y-77228000D01*
X68095143Y-77156571D01*
X68238000Y-77156571D01*
X68452286Y-77228000D01*
X68523715Y-77299429D01*
X69023715Y-77156571D02*
X70023715Y-77156571D01*
X69380858Y-78656571D01*
X70595143Y-77870857D02*
X71095143Y-77870857D01*
X71309429Y-78656571D02*
X70595143Y-78656571D01*
X70595143Y-77156571D01*
X71309429Y-77156571D01*
X71952286Y-77870857D02*
X72452286Y-77870857D01*
X72666572Y-78656571D02*
X71952286Y-78656571D01*
X71952286Y-77156571D01*
X72666572Y-77156571D01*
X50950000Y-58421429D02*
X50950000Y-57707143D01*
X51378571Y-58564286D02*
X49878571Y-58064286D01*
X51378571Y-57564286D01*
X51235714Y-56207143D02*
X51307143Y-56278572D01*
X51378571Y-56492858D01*
X51378571Y-56635715D01*
X51307143Y-56850000D01*
X51164286Y-56992858D01*
X51021429Y-57064286D01*
X50735714Y-57135715D01*
X50521429Y-57135715D01*
X50235714Y-57064286D01*
X50092857Y-56992858D01*
X49950000Y-56850000D01*
X49878571Y-56635715D01*
X49878571Y-56492858D01*
X49950000Y-56278572D01*
X50021429Y-56207143D01*
X51521429Y-55921429D02*
X51521429Y-54778572D01*
X51378571Y-54421429D02*
X49878571Y-54421429D01*
X51378571Y-53707143D02*
X49878571Y-53707143D01*
X51378571Y-52850000D01*
X49878571Y-52850000D01*
X47042857Y-73378571D02*
X47042857Y-71878571D01*
X47400000Y-71878571D01*
X47614285Y-71950000D01*
X47757143Y-72092857D01*
X47828571Y-72235714D01*
X47900000Y-72521429D01*
X47900000Y-72735714D01*
X47828571Y-73021429D01*
X47757143Y-73164286D01*
X47614285Y-73307143D01*
X47400000Y-73378571D01*
X47042857Y-73378571D01*
X49400000Y-73235714D02*
X49328571Y-73307143D01*
X49114285Y-73378571D01*
X48971428Y-73378571D01*
X48757143Y-73307143D01*
X48614285Y-73164286D01*
X48542857Y-73021429D01*
X48471428Y-72735714D01*
X48471428Y-72521429D01*
X48542857Y-72235714D01*
X48614285Y-72092857D01*
X48757143Y-71950000D01*
X48971428Y-71878571D01*
X49114285Y-71878571D01*
X49328571Y-71950000D01*
X49400000Y-72021429D01*
X49685714Y-73521429D02*
X50828571Y-73521429D01*
X51185714Y-73378571D02*
X51185714Y-71878571D01*
X51900000Y-73378571D02*
X51900000Y-71878571D01*
X52757143Y-73378571D01*
X52757143Y-71878571D01*
X49828572Y-70107143D02*
X50971429Y-70107143D01*
X49828572Y-67307143D02*
X50971429Y-67307143D01*
X50400000Y-67878571D02*
X50400000Y-66735714D01*
X72721429Y-70478571D02*
X72721429Y-68978571D01*
X73578572Y-70478571D01*
X73578572Y-68978571D01*
X75150001Y-70335714D02*
X75078572Y-70407143D01*
X74864286Y-70478571D01*
X74721429Y-70478571D01*
X74507144Y-70407143D01*
X74364286Y-70264286D01*
X74292858Y-70121429D01*
X74221429Y-69835714D01*
X74221429Y-69621429D01*
X74292858Y-69335714D01*
X74364286Y-69192857D01*
X74507144Y-69050000D01*
X74721429Y-68978571D01*
X74864286Y-68978571D01*
X75078572Y-69050000D01*
X75150001Y-69121429D01*
X72621429Y-68078571D02*
X72621429Y-66578571D01*
X73478572Y-68078571D01*
X73478572Y-66578571D01*
X75050001Y-67935714D02*
X74978572Y-68007143D01*
X74764286Y-68078571D01*
X74621429Y-68078571D01*
X74407144Y-68007143D01*
X74264286Y-67864286D01*
X74192858Y-67721429D01*
X74121429Y-67435714D01*
X74121429Y-67221429D01*
X74192858Y-66935714D01*
X74264286Y-66792857D01*
X74407144Y-66650000D01*
X74621429Y-66578571D01*
X74764286Y-66578571D01*
X74978572Y-66650000D01*
X75050001Y-66721429D01*
D12*
X71838095Y-61752381D02*
X72171428Y-62752381D01*
X72504762Y-61752381D01*
X73028571Y-61752381D02*
X73219048Y-61752381D01*
X73314286Y-61800000D01*
X73409524Y-61895238D01*
X73457143Y-62085714D01*
X73457143Y-62419048D01*
X73409524Y-62609524D01*
X73314286Y-62704762D01*
X73219048Y-62752381D01*
X73028571Y-62752381D01*
X72933333Y-62704762D01*
X72838095Y-62609524D01*
X72790476Y-62419048D01*
X72790476Y-62085714D01*
X72838095Y-61895238D01*
X72933333Y-61800000D01*
X73028571Y-61752381D01*
X73885714Y-61752381D02*
X73885714Y-62561905D01*
X73933333Y-62657143D01*
X73980952Y-62704762D01*
X74076190Y-62752381D01*
X74266667Y-62752381D01*
X74361905Y-62704762D01*
X74409524Y-62657143D01*
X74457143Y-62561905D01*
X74457143Y-61752381D01*
X74790476Y-61752381D02*
X75361905Y-61752381D01*
X75076190Y-62752381D02*
X75076190Y-61752381D01*
X72938096Y-64200000D02*
X72842858Y-64152381D01*
X72700001Y-64152381D01*
X72557143Y-64200000D01*
X72461905Y-64295238D01*
X72414286Y-64390476D01*
X72366667Y-64580952D01*
X72366667Y-64723810D01*
X72414286Y-64914286D01*
X72461905Y-65009524D01*
X72557143Y-65104762D01*
X72700001Y-65152381D01*
X72795239Y-65152381D01*
X72938096Y-65104762D01*
X72985715Y-65057143D01*
X72985715Y-64723810D01*
X72795239Y-64723810D01*
X73414286Y-65152381D02*
X73414286Y-64152381D01*
X73985715Y-65152381D01*
X73985715Y-64152381D01*
X74461905Y-65152381D02*
X74461905Y-64152381D01*
X74700000Y-64152381D01*
X74842858Y-64200000D01*
X74938096Y-64295238D01*
X74985715Y-64390476D01*
X75033334Y-64580952D01*
X75033334Y-64723810D01*
X74985715Y-64914286D01*
X74938096Y-65009524D01*
X74842858Y-65104762D01*
X74700000Y-65152381D01*
X74461905Y-65152381D01*
X70890476Y-60152381D02*
X70890476Y-59152381D01*
X71271429Y-59152381D01*
X71366667Y-59200000D01*
X71414286Y-59247619D01*
X71461905Y-59342857D01*
X71461905Y-59485714D01*
X71414286Y-59580952D01*
X71366667Y-59628571D01*
X71271429Y-59676190D01*
X70890476Y-59676190D01*
X72414286Y-59200000D02*
X72319048Y-59152381D01*
X72176191Y-59152381D01*
X72033333Y-59200000D01*
X71938095Y-59295238D01*
X71890476Y-59390476D01*
X71842857Y-59580952D01*
X71842857Y-59723810D01*
X71890476Y-59914286D01*
X71938095Y-60009524D01*
X72033333Y-60104762D01*
X72176191Y-60152381D01*
X72271429Y-60152381D01*
X72414286Y-60104762D01*
X72461905Y-60057143D01*
X72461905Y-59723810D01*
X72271429Y-59723810D01*
X73080952Y-59152381D02*
X73271429Y-59152381D01*
X73366667Y-59200000D01*
X73461905Y-59295238D01*
X73509524Y-59485714D01*
X73509524Y-59819048D01*
X73461905Y-60009524D01*
X73366667Y-60104762D01*
X73271429Y-60152381D01*
X73080952Y-60152381D01*
X72985714Y-60104762D01*
X72890476Y-60009524D01*
X72842857Y-59819048D01*
X72842857Y-59485714D01*
X72890476Y-59295238D01*
X72985714Y-59200000D01*
X73080952Y-59152381D01*
X74128571Y-59152381D02*
X74319048Y-59152381D01*
X74414286Y-59200000D01*
X74509524Y-59295238D01*
X74557143Y-59485714D01*
X74557143Y-59819048D01*
X74509524Y-60009524D01*
X74414286Y-60104762D01*
X74319048Y-60152381D01*
X74128571Y-60152381D01*
X74033333Y-60104762D01*
X73938095Y-60009524D01*
X73890476Y-59819048D01*
X73890476Y-59485714D01*
X73938095Y-59295238D01*
X74033333Y-59200000D01*
X74128571Y-59152381D01*
X74985714Y-60152381D02*
X74985714Y-59152381D01*
X75223809Y-59152381D01*
X75366667Y-59200000D01*
X75461905Y-59295238D01*
X75509524Y-59390476D01*
X75557143Y-59580952D01*
X75557143Y-59723810D01*
X75509524Y-59914286D01*
X75461905Y-60009524D01*
X75366667Y-60104762D01*
X75223809Y-60152381D01*
X74985714Y-60152381D01*
D11*
X70035714Y-57278571D02*
X69892856Y-57207143D01*
X69821428Y-57135714D01*
X69749999Y-56992857D01*
X69749999Y-56564286D01*
X69821428Y-56421429D01*
X69892856Y-56350000D01*
X70035714Y-56278571D01*
X70249999Y-56278571D01*
X70392856Y-56350000D01*
X70464285Y-56421429D01*
X70535714Y-56564286D01*
X70535714Y-56992857D01*
X70464285Y-57135714D01*
X70392856Y-57207143D01*
X70249999Y-57278571D01*
X70035714Y-57278571D01*
X71178571Y-56278571D02*
X71178571Y-57564286D01*
X71107142Y-57707143D01*
X70964285Y-57778571D01*
X70892857Y-57778571D01*
X71178571Y-55778571D02*
X71107142Y-55850000D01*
X71178571Y-55921429D01*
X71249999Y-55850000D01*
X71178571Y-55778571D01*
X71178571Y-55921429D01*
X72107143Y-57278571D02*
X71964285Y-57207143D01*
X71892857Y-57135714D01*
X71821428Y-56992857D01*
X71821428Y-56564286D01*
X71892857Y-56421429D01*
X71964285Y-56350000D01*
X72107143Y-56278571D01*
X72321428Y-56278571D01*
X72464285Y-56350000D01*
X72535714Y-56421429D01*
X72607143Y-56564286D01*
X72607143Y-56992857D01*
X72535714Y-57135714D01*
X72464285Y-57207143D01*
X72321428Y-57278571D01*
X72107143Y-57278571D01*
X73892857Y-56278571D02*
X73892857Y-57278571D01*
X73250000Y-56278571D02*
X73250000Y-57064286D01*
X73321428Y-57207143D01*
X73464286Y-57278571D01*
X73678571Y-57278571D01*
X73821428Y-57207143D01*
X73892857Y-57135714D01*
X74535714Y-57207143D02*
X74678571Y-57278571D01*
X74964286Y-57278571D01*
X75107143Y-57207143D01*
X75178571Y-57064286D01*
X75178571Y-56992857D01*
X75107143Y-56850000D01*
X74964286Y-56778571D01*
X74750000Y-56778571D01*
X74607143Y-56707143D01*
X74535714Y-56564286D01*
X74535714Y-56492857D01*
X74607143Y-56350000D01*
X74750000Y-56278571D01*
X74964286Y-56278571D01*
X75107143Y-56350000D01*
X75821429Y-57278571D02*
X75821429Y-56278571D01*
X75821429Y-55778571D02*
X75750000Y-55850000D01*
X75821429Y-55921429D01*
X75892857Y-55850000D01*
X75821429Y-55778571D01*
X75821429Y-55921429D01*
X76535715Y-57278571D02*
X76535715Y-56278571D01*
X76535715Y-56421429D02*
X76607143Y-56350000D01*
X76750001Y-56278571D01*
X76964286Y-56278571D01*
X77107143Y-56350000D01*
X77178572Y-56492857D01*
X77178572Y-57278571D01*
X77178572Y-56492857D02*
X77250001Y-56350000D01*
X77392858Y-56278571D01*
X77607143Y-56278571D01*
X77750001Y-56350000D01*
X77821429Y-56492857D01*
X77821429Y-57278571D01*
X79178572Y-57278571D02*
X79178572Y-56492857D01*
X79107143Y-56350000D01*
X78964286Y-56278571D01*
X78678572Y-56278571D01*
X78535715Y-56350000D01*
X79178572Y-57207143D02*
X79035715Y-57278571D01*
X78678572Y-57278571D01*
X78535715Y-57207143D01*
X78464286Y-57064286D01*
X78464286Y-56921429D01*
X78535715Y-56778571D01*
X78678572Y-56707143D01*
X79035715Y-56707143D01*
X79178572Y-56635714D01*
X63957143Y-52678571D02*
X63957143Y-51178571D01*
X63957143Y-51892857D02*
X64814286Y-51892857D01*
X64814286Y-52678571D02*
X64814286Y-51178571D01*
X66100000Y-52607143D02*
X65957143Y-52678571D01*
X65671429Y-52678571D01*
X65528572Y-52607143D01*
X65457143Y-52464286D01*
X65457143Y-51892857D01*
X65528572Y-51750000D01*
X65671429Y-51678571D01*
X65957143Y-51678571D01*
X66100000Y-51750000D01*
X66171429Y-51892857D01*
X66171429Y-52035714D01*
X65457143Y-52178571D01*
X67028572Y-52678571D02*
X66885714Y-52607143D01*
X66814286Y-52464286D01*
X66814286Y-51178571D01*
X67528571Y-52607143D02*
X67671428Y-52678571D01*
X67957143Y-52678571D01*
X68100000Y-52607143D01*
X68171428Y-52464286D01*
X68171428Y-52392857D01*
X68100000Y-52250000D01*
X67957143Y-52178571D01*
X67742857Y-52178571D01*
X67600000Y-52107143D01*
X67528571Y-51964286D01*
X67528571Y-51892857D01*
X67600000Y-51750000D01*
X67742857Y-51678571D01*
X67957143Y-51678571D01*
X68100000Y-51750000D01*
X68814286Y-52678571D02*
X68814286Y-51678571D01*
X68814286Y-51178571D02*
X68742857Y-51250000D01*
X68814286Y-51321429D01*
X68885714Y-51250000D01*
X68814286Y-51178571D01*
X68814286Y-51321429D01*
X69528572Y-51678571D02*
X69528572Y-52678571D01*
X69528572Y-51821429D02*
X69600000Y-51750000D01*
X69742858Y-51678571D01*
X69957143Y-51678571D01*
X70100000Y-51750000D01*
X70171429Y-51892857D01*
X70171429Y-52678571D01*
X70885715Y-52678571D02*
X70885715Y-51178571D01*
X71028572Y-52107143D02*
X71457143Y-52678571D01*
X71457143Y-51678571D02*
X70885715Y-52250000D01*
X72100001Y-52678571D02*
X72100001Y-51678571D01*
X72100001Y-51178571D02*
X72028572Y-51250000D01*
X72100001Y-51321429D01*
X72171429Y-51250000D01*
X72100001Y-51178571D01*
X72100001Y-51321429D01*
X63957143Y-55078571D02*
X63957143Y-53578571D01*
X63957143Y-54292857D02*
X64814286Y-54292857D01*
X64814286Y-55078571D02*
X64814286Y-53578571D01*
X66171429Y-55078571D02*
X66171429Y-54292857D01*
X66100000Y-54150000D01*
X65957143Y-54078571D01*
X65671429Y-54078571D01*
X65528572Y-54150000D01*
X66171429Y-55007143D02*
X66028572Y-55078571D01*
X65671429Y-55078571D01*
X65528572Y-55007143D01*
X65457143Y-54864286D01*
X65457143Y-54721429D01*
X65528572Y-54578571D01*
X65671429Y-54507143D01*
X66028572Y-54507143D01*
X66171429Y-54435714D01*
X67528572Y-55007143D02*
X67385715Y-55078571D01*
X67100001Y-55078571D01*
X66957143Y-55007143D01*
X66885715Y-54935714D01*
X66814286Y-54792857D01*
X66814286Y-54364286D01*
X66885715Y-54221429D01*
X66957143Y-54150000D01*
X67100001Y-54078571D01*
X67385715Y-54078571D01*
X67528572Y-54150000D01*
X68171429Y-55078571D02*
X68171429Y-53578571D01*
X68314286Y-54507143D02*
X68742857Y-55078571D01*
X68742857Y-54078571D02*
X68171429Y-54650000D01*
X69600001Y-55078571D02*
X69457143Y-55007143D01*
X69385715Y-54864286D01*
X69385715Y-53578571D01*
X70814286Y-55078571D02*
X70814286Y-54292857D01*
X70742857Y-54150000D01*
X70600000Y-54078571D01*
X70314286Y-54078571D01*
X70171429Y-54150000D01*
X70814286Y-55007143D02*
X70671429Y-55078571D01*
X70314286Y-55078571D01*
X70171429Y-55007143D01*
X70100000Y-54864286D01*
X70100000Y-54721429D01*
X70171429Y-54578571D01*
X70314286Y-54507143D01*
X70671429Y-54507143D01*
X70814286Y-54435714D01*
X71528572Y-55078571D02*
X71528572Y-53578571D01*
X71528572Y-54150000D02*
X71671429Y-54078571D01*
X71957143Y-54078571D01*
X72100000Y-54150000D01*
X72171429Y-54221429D01*
X72242858Y-54364286D01*
X72242858Y-54792857D01*
X72171429Y-54935714D01*
X72100000Y-55007143D01*
X71957143Y-55078571D01*
X71671429Y-55078571D01*
X71528572Y-55007143D01*
D12*
X61642857Y-49147619D02*
X61690476Y-49100000D01*
X61785714Y-49052381D01*
X62023810Y-49052381D01*
X62119048Y-49100000D01*
X62166667Y-49147619D01*
X62214286Y-49242857D01*
X62214286Y-49338095D01*
X62166667Y-49480952D01*
X61595238Y-50052381D01*
X62214286Y-50052381D01*
X62833333Y-49052381D02*
X62928572Y-49052381D01*
X63023810Y-49100000D01*
X63071429Y-49147619D01*
X63119048Y-49242857D01*
X63166667Y-49433333D01*
X63166667Y-49671429D01*
X63119048Y-49861905D01*
X63071429Y-49957143D01*
X63023810Y-50004762D01*
X62928572Y-50052381D01*
X62833333Y-50052381D01*
X62738095Y-50004762D01*
X62690476Y-49957143D01*
X62642857Y-49861905D01*
X62595238Y-49671429D01*
X62595238Y-49433333D01*
X62642857Y-49242857D01*
X62690476Y-49147619D01*
X62738095Y-49100000D01*
X62833333Y-49052381D01*
X64119048Y-50052381D02*
X63547619Y-50052381D01*
X63833333Y-50052381D02*
X63833333Y-49052381D01*
X63738095Y-49195238D01*
X63642857Y-49290476D01*
X63547619Y-49338095D01*
X65023810Y-49052381D02*
X64547619Y-49052381D01*
X64500000Y-49528571D01*
X64547619Y-49480952D01*
X64642857Y-49433333D01*
X64880953Y-49433333D01*
X64976191Y-49480952D01*
X65023810Y-49528571D01*
X65071429Y-49623810D01*
X65071429Y-49861905D01*
X65023810Y-49957143D01*
X64976191Y-50004762D01*
X64880953Y-50052381D01*
X64642857Y-50052381D01*
X64547619Y-50004762D01*
X64500000Y-49957143D01*
X65500000Y-49671429D02*
X66261905Y-49671429D01*
X67261905Y-50052381D02*
X66690476Y-50052381D01*
X66976190Y-50052381D02*
X66976190Y-49052381D01*
X66880952Y-49195238D01*
X66785714Y-49290476D01*
X66690476Y-49338095D01*
X67880952Y-49052381D02*
X67976191Y-49052381D01*
X68071429Y-49100000D01*
X68119048Y-49147619D01*
X68166667Y-49242857D01*
X68214286Y-49433333D01*
X68214286Y-49671429D01*
X68166667Y-49861905D01*
X68119048Y-49957143D01*
X68071429Y-50004762D01*
X67976191Y-50052381D01*
X67880952Y-50052381D01*
X67785714Y-50004762D01*
X67738095Y-49957143D01*
X67690476Y-49861905D01*
X67642857Y-49671429D01*
X67642857Y-49433333D01*
X67690476Y-49242857D01*
X67738095Y-49147619D01*
X67785714Y-49100000D01*
X67880952Y-49052381D01*
X68642857Y-49671429D02*
X69404762Y-49671429D01*
X69833333Y-49147619D02*
X69880952Y-49100000D01*
X69976190Y-49052381D01*
X70214286Y-49052381D01*
X70309524Y-49100000D01*
X70357143Y-49147619D01*
X70404762Y-49242857D01*
X70404762Y-49338095D01*
X70357143Y-49480952D01*
X69785714Y-50052381D01*
X70404762Y-50052381D01*
X70738095Y-49052381D02*
X71404762Y-49052381D01*
X70976190Y-50052381D01*
D13*
X57500000Y-56500000D02*
X58500000Y-56500000D01*
X57200000Y-54300000D02*
X58800000Y-55800000D01*
X55700000Y-54300000D02*
X57200000Y-54300000D01*
X54200000Y-55700000D02*
X55700000Y-54300000D01*
X59500000Y-54500000D02*
X59500000Y-55500000D01*
X57100000Y-51300000D02*
X58800000Y-52800000D01*
X57500000Y-50500000D02*
G75*
G03X57500000Y-50500000I-1000000J0D01*
G01*
X60500000Y-53500000D02*
G75*
G03X60500000Y-53500000I-1000000J0D01*
G01*
X60500000Y-56500000D02*
G75*
G03X60500000Y-56500000I-1000000J0D01*
G01*
X57500000Y-56500000D02*
G75*
G03X57500000Y-56500000I-1000000J0D01*
G01*
X54500000Y-56500000D02*
G75*
G03X54500000Y-56500000I-1000000J0D01*
G01*
X52000000Y-55000000D02*
X61000000Y-55000000D01*
X61000000Y-52000000D02*
X52000000Y-52000000D01*
X58000000Y-58000000D02*
X58000000Y-49000000D01*
X55000000Y-49000000D02*
X55000000Y-58000000D01*
X61000000Y-49000000D02*
X52000000Y-49000000D01*
X61000000Y-58000000D02*
X61000000Y-49000000D01*
X52000000Y-58000000D02*
X61000000Y-58000000D01*
X52000000Y-49000000D02*
X52000000Y-58000000D01*
D12*
X55285714Y-47928571D02*
X55428571Y-47976190D01*
X55476190Y-48023810D01*
X55523809Y-48119048D01*
X55523809Y-48261905D01*
X55476190Y-48357143D01*
X55428571Y-48404762D01*
X55333333Y-48452381D01*
X54952380Y-48452381D01*
X54952380Y-47452381D01*
X55285714Y-47452381D01*
X55380952Y-47500000D01*
X55428571Y-47547619D01*
X55476190Y-47642857D01*
X55476190Y-47738095D01*
X55428571Y-47833333D01*
X55380952Y-47880952D01*
X55285714Y-47928571D01*
X54952380Y-47928571D01*
X56619047Y-48547619D02*
X56523809Y-48500000D01*
X56428571Y-48404762D01*
X56285714Y-48261905D01*
X56190475Y-48214286D01*
X56095237Y-48214286D01*
X56142856Y-48452381D02*
X56047618Y-48404762D01*
X55952380Y-48309524D01*
X55904761Y-48119048D01*
X55904761Y-47785714D01*
X55952380Y-47595238D01*
X56047618Y-47500000D01*
X56142856Y-47452381D01*
X56333333Y-47452381D01*
X56428571Y-47500000D01*
X56523809Y-47595238D01*
X56571428Y-47785714D01*
X56571428Y-48119048D01*
X56523809Y-48309524D01*
X56428571Y-48404762D01*
X56333333Y-48452381D01*
X56142856Y-48452381D01*
X56952380Y-47547619D02*
X56999999Y-47500000D01*
X57095237Y-47452381D01*
X57333333Y-47452381D01*
X57428571Y-47500000D01*
X57476190Y-47547619D01*
X57523809Y-47642857D01*
X57523809Y-47738095D01*
X57476190Y-47880952D01*
X56904761Y-48452381D01*
X57523809Y-48452381D01*
X58428571Y-47452381D02*
X57952380Y-47452381D01*
X57904761Y-47928571D01*
X57952380Y-47880952D01*
X58047618Y-47833333D01*
X58285714Y-47833333D01*
X58380952Y-47880952D01*
X58428571Y-47928571D01*
X58476190Y-48023810D01*
X58476190Y-48261905D01*
X58428571Y-48357143D01*
X58380952Y-48404762D01*
X58285714Y-48452381D01*
X58047618Y-48452381D01*
X57952380Y-48404762D01*
X57904761Y-48357143D01*
X59380952Y-47452381D02*
X58904761Y-47452381D01*
X58857142Y-47928571D01*
X58904761Y-47880952D01*
X58999999Y-47833333D01*
X59238095Y-47833333D01*
X59333333Y-47880952D01*
X59380952Y-47928571D01*
X59428571Y-48023810D01*
X59428571Y-48261905D01*
X59380952Y-48357143D01*
X59333333Y-48404762D01*
X59238095Y-48452381D01*
X58999999Y-48452381D01*
X58904761Y-48404762D01*
X58857142Y-48357143D01*
X60047618Y-47452381D02*
X60142857Y-47452381D01*
X60238095Y-47500000D01*
X60285714Y-47547619D01*
X60333333Y-47642857D01*
X60380952Y-47833333D01*
X60380952Y-48071429D01*
X60333333Y-48261905D01*
X60285714Y-48357143D01*
X60238095Y-48404762D01*
X60142857Y-48452381D01*
X60047618Y-48452381D01*
X59952380Y-48404762D01*
X59904761Y-48357143D01*
X59857142Y-48261905D01*
X59809523Y-48071429D01*
X59809523Y-47833333D01*
X59857142Y-47642857D01*
X59904761Y-47547619D01*
X59952380Y-47500000D01*
X60047618Y-47452381D01*
X61238095Y-47785714D02*
X61238095Y-48452381D01*
X60999999Y-47404762D02*
X60761904Y-48119048D01*
X61380952Y-48119048D01*
X62380952Y-47452381D02*
X62952381Y-47452381D01*
X62666666Y-48452381D02*
X62666666Y-47452381D01*
X63666667Y-48404762D02*
X63571429Y-48452381D01*
X63380952Y-48452381D01*
X63285714Y-48404762D01*
X63238095Y-48309524D01*
X63238095Y-47928571D01*
X63285714Y-47833333D01*
X63380952Y-47785714D01*
X63571429Y-47785714D01*
X63666667Y-47833333D01*
X63714286Y-47928571D01*
X63714286Y-48023810D01*
X63238095Y-48119048D01*
X64095238Y-48404762D02*
X64190476Y-48452381D01*
X64380952Y-48452381D01*
X64476191Y-48404762D01*
X64523810Y-48309524D01*
X64523810Y-48261905D01*
X64476191Y-48166667D01*
X64380952Y-48119048D01*
X64238095Y-48119048D01*
X64142857Y-48071429D01*
X64095238Y-47976190D01*
X64095238Y-47928571D01*
X64142857Y-47833333D01*
X64238095Y-47785714D01*
X64380952Y-47785714D01*
X64476191Y-47833333D01*
X64809524Y-47785714D02*
X65190476Y-47785714D01*
X64952381Y-47452381D02*
X64952381Y-48309524D01*
X65000000Y-48404762D01*
X65095238Y-48452381D01*
X65190476Y-48452381D01*
X66285715Y-48452381D02*
X66285715Y-47452381D01*
X66285715Y-47833333D02*
X66380953Y-47785714D01*
X66571430Y-47785714D01*
X66666668Y-47833333D01*
X66714287Y-47880952D01*
X66761906Y-47976190D01*
X66761906Y-48261905D01*
X66714287Y-48357143D01*
X66666668Y-48404762D01*
X66571430Y-48452381D01*
X66380953Y-48452381D01*
X66285715Y-48404762D01*
X67333334Y-48452381D02*
X67238096Y-48404762D01*
X67190477Y-48357143D01*
X67142858Y-48261905D01*
X67142858Y-47976190D01*
X67190477Y-47880952D01*
X67238096Y-47833333D01*
X67333334Y-47785714D01*
X67476192Y-47785714D01*
X67571430Y-47833333D01*
X67619049Y-47880952D01*
X67666668Y-47976190D01*
X67666668Y-48261905D01*
X67619049Y-48357143D01*
X67571430Y-48404762D01*
X67476192Y-48452381D01*
X67333334Y-48452381D01*
X68523811Y-48452381D02*
X68523811Y-47928571D01*
X68476192Y-47833333D01*
X68380954Y-47785714D01*
X68190477Y-47785714D01*
X68095239Y-47833333D01*
X68523811Y-48404762D02*
X68428573Y-48452381D01*
X68190477Y-48452381D01*
X68095239Y-48404762D01*
X68047620Y-48309524D01*
X68047620Y-48214286D01*
X68095239Y-48119048D01*
X68190477Y-48071429D01*
X68428573Y-48071429D01*
X68523811Y-48023810D01*
X69000001Y-48452381D02*
X69000001Y-47785714D01*
X69000001Y-47976190D02*
X69047620Y-47880952D01*
X69095239Y-47833333D01*
X69190477Y-47785714D01*
X69285716Y-47785714D01*
X70047621Y-48452381D02*
X70047621Y-47452381D01*
X70047621Y-48404762D02*
X69952383Y-48452381D01*
X69761906Y-48452381D01*
X69666668Y-48404762D01*
X69619049Y-48357143D01*
X69571430Y-48261905D01*
X69571430Y-47976190D01*
X69619049Y-47880952D01*
X69666668Y-47833333D01*
X69761906Y-47785714D01*
X69952383Y-47785714D01*
X70047621Y-47833333D01*
D10*
X45000000Y-48250000D02*
X45000000Y-76500000D01*
X76500000Y-45000000D02*
X48750000Y-45000000D01*
X80000000Y-76500000D02*
X80000000Y-48500000D01*
X48500000Y-80000000D02*
X76500000Y-80000000D01*
X45000000Y-76500000D02*
G75*
G03X48500000Y-80000000I3500000J0D01*
G01*
X76500000Y-80000000D02*
G75*
G03X80000000Y-76500000I0J3500000D01*
G01*
X80000000Y-48500000D02*
G75*
G03X76500000Y-45000000I-3500000J0D01*
G01*
X48750000Y-45000000D02*
G75*
G03X45000000Y-48250000I-250000J-3500000D01*
G01*
D13*
X56700000Y-62050000D02*
X56700000Y-60450000D01*
X55300000Y-60450000D02*
X55300000Y-62050000D01*
X61406000Y-67094000D02*
X61406000Y-65494000D01*
X60006000Y-65494000D02*
X60006000Y-67094000D01*
X61950000Y-59700000D02*
X63550000Y-59700000D01*
X63550000Y-58300000D02*
X61950000Y-58300000D01*
X67600000Y-57800000D02*
X67600000Y-59400000D01*
X69000000Y-59400000D02*
X69000000Y-57800000D01*
X59570000Y-62160000D02*
X59570000Y-59760000D01*
X57270000Y-59760000D02*
X57270000Y-62160000D01*
X46990000Y-55880000D02*
X49530000Y-55880000D01*
X46990000Y-58420000D02*
X49530000Y-58420000D01*
X49530000Y-58420000D02*
X49530000Y-55880000D01*
X49530000Y-55880000D02*
X49530000Y-53340000D01*
X49530000Y-53340000D02*
X46990000Y-53340000D01*
X46990000Y-53340000D02*
X46990000Y-58420000D01*
X46990000Y-68580000D02*
X49530000Y-68580000D01*
X46990000Y-71120000D02*
X49530000Y-71120000D01*
X49530000Y-71120000D02*
X49530000Y-68580000D01*
X49530000Y-68580000D02*
X49530000Y-66040000D01*
X49530000Y-66040000D02*
X46990000Y-66040000D01*
X46990000Y-66040000D02*
X46990000Y-71120000D01*
X57000000Y-65500000D02*
X58600000Y-65500000D01*
X58600000Y-64100000D02*
X57000000Y-64100000D01*
X58600000Y-66100000D02*
X57000000Y-66100000D01*
X57000000Y-67500000D02*
X58600000Y-67500000D01*
X62954000Y-66232000D02*
X64554000Y-66232000D01*
X64554000Y-64832000D02*
X62954000Y-64832000D01*
X62954000Y-68264000D02*
X64554000Y-68264000D01*
X64554000Y-66864000D02*
X62954000Y-66864000D01*
X62954000Y-70296000D02*
X64554000Y-70296000D01*
X64554000Y-68896000D02*
X62954000Y-68896000D01*
X66764000Y-66232000D02*
X68364000Y-66232000D01*
X68364000Y-64832000D02*
X66764000Y-64832000D01*
X69026000Y-63284000D02*
X69026000Y-61684000D01*
X67626000Y-61684000D02*
X67626000Y-63284000D01*
X66764000Y-68264000D02*
X68364000Y-68264000D01*
X68364000Y-66864000D02*
X66764000Y-66864000D01*
X60744000Y-68896000D02*
X59144000Y-68896000D01*
X59144000Y-70296000D02*
X60744000Y-70296000D01*
X63855000Y-60605000D02*
X63855000Y-61105000D01*
X60605000Y-63855000D02*
X60605000Y-63355000D01*
X63855000Y-63855000D02*
X63855000Y-63355000D01*
X60605000Y-60605000D02*
X61105000Y-60605000D01*
X60605000Y-63855000D02*
X61105000Y-63855000D01*
X63855000Y-63855000D02*
X63355000Y-63855000D01*
X63855000Y-60605000D02*
X63355000Y-60605000D01*
D14*
X52050000Y-66100000D02*
X52050000Y-65700000D01*
X52050000Y-65700000D02*
X52450000Y-65700000D01*
X52450000Y-65700000D02*
X52450000Y-66100000D01*
D13*
X52250000Y-66750000D02*
X52250000Y-66500000D01*
X52250000Y-67250000D02*
X52250000Y-67500000D01*
X52250000Y-67250000D02*
X51900000Y-66750000D01*
X51900000Y-66750000D02*
X52600000Y-66750000D01*
X52600000Y-66750000D02*
X52250000Y-67250000D01*
X51900000Y-67250000D02*
X52600000Y-67250000D01*
X53050000Y-68600000D02*
X53050000Y-66200000D01*
X51450000Y-68600000D02*
X51450000Y-66200000D01*
X78740000Y-60960000D02*
X78740000Y-71120000D01*
X78740000Y-71120000D02*
X76200000Y-71120000D01*
X76200000Y-71120000D02*
X76200000Y-60960000D01*
X78740000Y-58420000D02*
X78740000Y-60960000D01*
X78740000Y-60960000D02*
X76200000Y-60960000D01*
X78740000Y-58420000D02*
X76200000Y-58420000D01*
X76200000Y-58420000D02*
X76200000Y-60960000D01*
X53024000Y-61506000D02*
X53024000Y-59906000D01*
X51624000Y-59906000D02*
X51624000Y-61506000D01*
D14*
X49668000Y-63554000D02*
X50068000Y-63554000D01*
X50068000Y-63554000D02*
X50068000Y-63954000D01*
X50068000Y-63954000D02*
X49668000Y-63954000D01*
D13*
X49018000Y-63754000D02*
X49268000Y-63754000D01*
X48518000Y-63754000D02*
X48268000Y-63754000D01*
X48518000Y-63754000D02*
X49018000Y-63404000D01*
X49018000Y-63404000D02*
X49018000Y-64104000D01*
X49018000Y-64104000D02*
X48518000Y-63754000D01*
X48518000Y-63404000D02*
X48518000Y-64104000D01*
X47168000Y-64554000D02*
X49568000Y-64554000D01*
X47168000Y-62954000D02*
X49568000Y-62954000D01*
D14*
X47868000Y-61668000D02*
X47468000Y-61668000D01*
X47468000Y-61668000D02*
X47468000Y-61268000D01*
X47468000Y-61268000D02*
X47868000Y-61268000D01*
D13*
X48518000Y-61468000D02*
X48268000Y-61468000D01*
X49018000Y-61468000D02*
X49268000Y-61468000D01*
X49018000Y-61468000D02*
X48518000Y-61818000D01*
X48518000Y-61818000D02*
X48518000Y-61118000D01*
X48518000Y-61118000D02*
X49018000Y-61468000D01*
X49018000Y-61818000D02*
X49018000Y-61118000D01*
X50368000Y-60668000D02*
X47968000Y-60668000D01*
X50368000Y-62268000D02*
X47968000Y-62268000D01*
X56000667Y-58959714D02*
X55962572Y-58997810D01*
X55848286Y-59035905D01*
X55772096Y-59035905D01*
X55657810Y-58997810D01*
X55581619Y-58921619D01*
X55543524Y-58845429D01*
X55505429Y-58693048D01*
X55505429Y-58578762D01*
X55543524Y-58426381D01*
X55581619Y-58350190D01*
X55657810Y-58274000D01*
X55772096Y-58235905D01*
X55848286Y-58235905D01*
X55962572Y-58274000D01*
X56000667Y-58312095D01*
X56762572Y-59035905D02*
X56305429Y-59035905D01*
X56534000Y-59035905D02*
X56534000Y-58235905D01*
X56457810Y-58350190D01*
X56381619Y-58426381D01*
X56305429Y-58464476D01*
X59810667Y-72421714D02*
X59772572Y-72459810D01*
X59658286Y-72497905D01*
X59582096Y-72497905D01*
X59467810Y-72459810D01*
X59391619Y-72383619D01*
X59353524Y-72307429D01*
X59315429Y-72155048D01*
X59315429Y-72040762D01*
X59353524Y-71888381D01*
X59391619Y-71812190D01*
X59467810Y-71736000D01*
X59582096Y-71697905D01*
X59658286Y-71697905D01*
X59772572Y-71736000D01*
X59810667Y-71774095D01*
X60115429Y-71774095D02*
X60153524Y-71736000D01*
X60229715Y-71697905D01*
X60420191Y-71697905D01*
X60496381Y-71736000D01*
X60534477Y-71774095D01*
X60572572Y-71850286D01*
X60572572Y-71926476D01*
X60534477Y-72040762D01*
X60077334Y-72497905D01*
X60572572Y-72497905D01*
X62604667Y-57689714D02*
X62566572Y-57727810D01*
X62452286Y-57765905D01*
X62376096Y-57765905D01*
X62261810Y-57727810D01*
X62185619Y-57651619D01*
X62147524Y-57575429D01*
X62109429Y-57423048D01*
X62109429Y-57308762D01*
X62147524Y-57156381D01*
X62185619Y-57080190D01*
X62261810Y-57004000D01*
X62376096Y-56965905D01*
X62452286Y-56965905D01*
X62566572Y-57004000D01*
X62604667Y-57042095D01*
X62871334Y-56965905D02*
X63366572Y-56965905D01*
X63099905Y-57270667D01*
X63214191Y-57270667D01*
X63290381Y-57308762D01*
X63328477Y-57346857D01*
X63366572Y-57423048D01*
X63366572Y-57613524D01*
X63328477Y-57689714D01*
X63290381Y-57727810D01*
X63214191Y-57765905D01*
X62985619Y-57765905D01*
X62909429Y-57727810D01*
X62871334Y-57689714D01*
X66833714Y-58807333D02*
X66871810Y-58845428D01*
X66909905Y-58959714D01*
X66909905Y-59035904D01*
X66871810Y-59150190D01*
X66795619Y-59226381D01*
X66719429Y-59264476D01*
X66567048Y-59302571D01*
X66452762Y-59302571D01*
X66300381Y-59264476D01*
X66224190Y-59226381D01*
X66148000Y-59150190D01*
X66109905Y-59035904D01*
X66109905Y-58959714D01*
X66148000Y-58845428D01*
X66186095Y-58807333D01*
X66376571Y-58121619D02*
X66909905Y-58121619D01*
X66071810Y-58312095D02*
X66643238Y-58502571D01*
X66643238Y-58007333D01*
X60813905Y-59315333D02*
X60813905Y-59696286D01*
X60013905Y-59696286D01*
X60813905Y-58629619D02*
X60813905Y-59086762D01*
X60813905Y-58858191D02*
X60013905Y-58858191D01*
X60128190Y-58934381D01*
X60204381Y-59010572D01*
X60242476Y-59086762D01*
X46426381Y-56618095D02*
X45426381Y-56618095D01*
X45426381Y-56237142D01*
X45474000Y-56141904D01*
X45521619Y-56094285D01*
X45616857Y-56046666D01*
X45759714Y-56046666D01*
X45854952Y-56094285D01*
X45902571Y-56141904D01*
X45950190Y-56237142D01*
X45950190Y-56618095D01*
X46426381Y-55094285D02*
X46426381Y-55665714D01*
X46426381Y-55380000D02*
X45426381Y-55380000D01*
X45569238Y-55475238D01*
X45664476Y-55570476D01*
X45712095Y-55665714D01*
X46426381Y-69318095D02*
X45426381Y-69318095D01*
X45426381Y-68937142D01*
X45474000Y-68841904D01*
X45521619Y-68794285D01*
X45616857Y-68746666D01*
X45759714Y-68746666D01*
X45854952Y-68794285D01*
X45902571Y-68841904D01*
X45950190Y-68937142D01*
X45950190Y-69318095D01*
X45521619Y-68365714D02*
X45474000Y-68318095D01*
X45426381Y-68222857D01*
X45426381Y-67984761D01*
X45474000Y-67889523D01*
X45521619Y-67841904D01*
X45616857Y-67794285D01*
X45712095Y-67794285D01*
X45854952Y-67841904D01*
X46426381Y-68413333D01*
X46426381Y-67794285D01*
X55238667Y-65131905D02*
X54972000Y-64750952D01*
X54781524Y-65131905D02*
X54781524Y-64331905D01*
X55086286Y-64331905D01*
X55162477Y-64370000D01*
X55200572Y-64408095D01*
X55238667Y-64484286D01*
X55238667Y-64598571D01*
X55200572Y-64674762D01*
X55162477Y-64712857D01*
X55086286Y-64750952D01*
X54781524Y-64750952D01*
X56000572Y-65131905D02*
X55543429Y-65131905D01*
X55772000Y-65131905D02*
X55772000Y-64331905D01*
X55695810Y-64446190D01*
X55619619Y-64522381D01*
X55543429Y-64560476D01*
X55238667Y-68941905D02*
X54972000Y-68560952D01*
X54781524Y-68941905D02*
X54781524Y-68141905D01*
X55086286Y-68141905D01*
X55162477Y-68180000D01*
X55200572Y-68218095D01*
X55238667Y-68294286D01*
X55238667Y-68408571D01*
X55200572Y-68484762D01*
X55162477Y-68522857D01*
X55086286Y-68560952D01*
X54781524Y-68560952D01*
X55543429Y-68218095D02*
X55581524Y-68180000D01*
X55657715Y-68141905D01*
X55848191Y-68141905D01*
X55924381Y-68180000D01*
X55962477Y-68218095D01*
X56000572Y-68294286D01*
X56000572Y-68370476D01*
X55962477Y-68484762D01*
X55505334Y-68941905D01*
X56000572Y-68941905D01*
X64382667Y-71989905D02*
X64116000Y-71608952D01*
X63925524Y-71989905D02*
X63925524Y-71189905D01*
X64230286Y-71189905D01*
X64306477Y-71228000D01*
X64344572Y-71266095D01*
X64382667Y-71342286D01*
X64382667Y-71456571D01*
X64344572Y-71532762D01*
X64306477Y-71570857D01*
X64230286Y-71608952D01*
X63925524Y-71608952D01*
X64649334Y-71189905D02*
X65144572Y-71189905D01*
X64877905Y-71494667D01*
X64992191Y-71494667D01*
X65068381Y-71532762D01*
X65106477Y-71570857D01*
X65144572Y-71647048D01*
X65144572Y-71837524D01*
X65106477Y-71913714D01*
X65068381Y-71951810D01*
X64992191Y-71989905D01*
X64763619Y-71989905D01*
X64687429Y-71951810D01*
X64649334Y-71913714D01*
X64382667Y-73513905D02*
X64116000Y-73132952D01*
X63925524Y-73513905D02*
X63925524Y-72713905D01*
X64230286Y-72713905D01*
X64306477Y-72752000D01*
X64344572Y-72790095D01*
X64382667Y-72866286D01*
X64382667Y-72980571D01*
X64344572Y-73056762D01*
X64306477Y-73094857D01*
X64230286Y-73132952D01*
X63925524Y-73132952D01*
X65068381Y-72980571D02*
X65068381Y-73513905D01*
X64877905Y-72675810D02*
X64687429Y-73247238D01*
X65182667Y-73247238D01*
X64382667Y-75037905D02*
X64116000Y-74656952D01*
X63925524Y-75037905D02*
X63925524Y-74237905D01*
X64230286Y-74237905D01*
X64306477Y-74276000D01*
X64344572Y-74314095D01*
X64382667Y-74390286D01*
X64382667Y-74504571D01*
X64344572Y-74580762D01*
X64306477Y-74618857D01*
X64230286Y-74656952D01*
X63925524Y-74656952D01*
X65106477Y-74237905D02*
X64725524Y-74237905D01*
X64687429Y-74618857D01*
X64725524Y-74580762D01*
X64801715Y-74542667D01*
X64992191Y-74542667D01*
X65068381Y-74580762D01*
X65106477Y-74618857D01*
X65144572Y-74695048D01*
X65144572Y-74885524D01*
X65106477Y-74961714D01*
X65068381Y-74999810D01*
X64992191Y-75037905D01*
X64801715Y-75037905D01*
X64725524Y-74999810D01*
X64687429Y-74961714D01*
X67430667Y-70211905D02*
X67164000Y-69830952D01*
X66973524Y-70211905D02*
X66973524Y-69411905D01*
X67278286Y-69411905D01*
X67354477Y-69450000D01*
X67392572Y-69488095D01*
X67430667Y-69564286D01*
X67430667Y-69678571D01*
X67392572Y-69754762D01*
X67354477Y-69792857D01*
X67278286Y-69830952D01*
X66973524Y-69830952D01*
X68116381Y-69411905D02*
X67964000Y-69411905D01*
X67887810Y-69450000D01*
X67849715Y-69488095D01*
X67773524Y-69602381D01*
X67735429Y-69754762D01*
X67735429Y-70059524D01*
X67773524Y-70135714D01*
X67811619Y-70173810D01*
X67887810Y-70211905D01*
X68040191Y-70211905D01*
X68116381Y-70173810D01*
X68154477Y-70135714D01*
X68192572Y-70059524D01*
X68192572Y-69869048D01*
X68154477Y-69792857D01*
X68116381Y-69754762D01*
X68040191Y-69716667D01*
X67887810Y-69716667D01*
X67811619Y-69754762D01*
X67773524Y-69792857D01*
X67735429Y-69869048D01*
X70719905Y-62617333D02*
X70338952Y-62884000D01*
X70719905Y-63074476D02*
X69919905Y-63074476D01*
X69919905Y-62769714D01*
X69958000Y-62693523D01*
X69996095Y-62655428D01*
X70072286Y-62617333D01*
X70186571Y-62617333D01*
X70262762Y-62655428D01*
X70300857Y-62693523D01*
X70338952Y-62769714D01*
X70338952Y-63074476D01*
X69919905Y-62350666D02*
X69919905Y-61817333D01*
X70719905Y-62160190D01*
X67430667Y-71989905D02*
X67164000Y-71608952D01*
X66973524Y-71989905D02*
X66973524Y-71189905D01*
X67278286Y-71189905D01*
X67354477Y-71228000D01*
X67392572Y-71266095D01*
X67430667Y-71342286D01*
X67430667Y-71456571D01*
X67392572Y-71532762D01*
X67354477Y-71570857D01*
X67278286Y-71608952D01*
X66973524Y-71608952D01*
X67887810Y-71532762D02*
X67811619Y-71494667D01*
X67773524Y-71456571D01*
X67735429Y-71380381D01*
X67735429Y-71342286D01*
X67773524Y-71266095D01*
X67811619Y-71228000D01*
X67887810Y-71189905D01*
X68040191Y-71189905D01*
X68116381Y-71228000D01*
X68154477Y-71266095D01*
X68192572Y-71342286D01*
X68192572Y-71380381D01*
X68154477Y-71456571D01*
X68116381Y-71494667D01*
X68040191Y-71532762D01*
X67887810Y-71532762D01*
X67811619Y-71570857D01*
X67773524Y-71608952D01*
X67735429Y-71685143D01*
X67735429Y-71837524D01*
X67773524Y-71913714D01*
X67811619Y-71951810D01*
X67887810Y-71989905D01*
X68040191Y-71989905D01*
X68116381Y-71951810D01*
X68154477Y-71913714D01*
X68192572Y-71837524D01*
X68192572Y-71685143D01*
X68154477Y-71608952D01*
X68116381Y-71570857D01*
X68040191Y-71532762D01*
X59810667Y-73767905D02*
X59544000Y-73386952D01*
X59353524Y-73767905D02*
X59353524Y-72967905D01*
X59658286Y-72967905D01*
X59734477Y-73006000D01*
X59772572Y-73044095D01*
X59810667Y-73120286D01*
X59810667Y-73234571D01*
X59772572Y-73310762D01*
X59734477Y-73348857D01*
X59658286Y-73386952D01*
X59353524Y-73386952D01*
X60191619Y-73767905D02*
X60344000Y-73767905D01*
X60420191Y-73729810D01*
X60458286Y-73691714D01*
X60534477Y-73577429D01*
X60572572Y-73425048D01*
X60572572Y-73120286D01*
X60534477Y-73044095D01*
X60496381Y-73006000D01*
X60420191Y-72967905D01*
X60267810Y-72967905D01*
X60191619Y-73006000D01*
X60153524Y-73044095D01*
X60115429Y-73120286D01*
X60115429Y-73310762D01*
X60153524Y-73386952D01*
X60191619Y-73425048D01*
X60267810Y-73463143D01*
X60420191Y-73463143D01*
X60496381Y-73425048D01*
X60534477Y-73386952D01*
X60572572Y-73310762D01*
X65024095Y-61428381D02*
X65024095Y-62237905D01*
X65071714Y-62333143D01*
X65119333Y-62380762D01*
X65214571Y-62428381D01*
X65405048Y-62428381D01*
X65500286Y-62380762D01*
X65547905Y-62333143D01*
X65595524Y-62237905D01*
X65595524Y-61428381D01*
X66595524Y-62428381D02*
X66024095Y-62428381D01*
X66309809Y-62428381D02*
X66309809Y-61428381D01*
X66214571Y-61571238D01*
X66119333Y-61666476D01*
X66024095Y-61714095D01*
X54652381Y-67738095D02*
X53652381Y-67738095D01*
X53652381Y-67500000D01*
X53700000Y-67357142D01*
X53795238Y-67261904D01*
X53890476Y-67214285D01*
X54080952Y-67166666D01*
X54223810Y-67166666D01*
X54414286Y-67214285D01*
X54509524Y-67261904D01*
X54604762Y-67357142D01*
X54652381Y-67500000D01*
X54652381Y-67738095D01*
X54652381Y-66214285D02*
X54652381Y-66785714D01*
X54652381Y-66500000D02*
X53652381Y-66500000D01*
X53795238Y-66595238D01*
X53890476Y-66690476D01*
X53938095Y-66785714D01*
X76731905Y-72588381D02*
X76731905Y-71588381D01*
X77112858Y-71588381D01*
X77208096Y-71636000D01*
X77255715Y-71683619D01*
X77303334Y-71778857D01*
X77303334Y-71921714D01*
X77255715Y-72016952D01*
X77208096Y-72064571D01*
X77112858Y-72112190D01*
X76731905Y-72112190D01*
X77636667Y-71588381D02*
X78255715Y-71588381D01*
X77922381Y-71969333D01*
X78065239Y-71969333D01*
X78160477Y-72016952D01*
X78208096Y-72064571D01*
X78255715Y-72159810D01*
X78255715Y-72397905D01*
X78208096Y-72493143D01*
X78160477Y-72540762D01*
X78065239Y-72588381D01*
X77779524Y-72588381D01*
X77684286Y-72540762D01*
X77636667Y-72493143D01*
D15*
X54133714Y-60839333D02*
X54171810Y-60877428D01*
X54209905Y-60991714D01*
X54209905Y-61067904D01*
X54171810Y-61182190D01*
X54095619Y-61258381D01*
X54019429Y-61296476D01*
X53867048Y-61334571D01*
X53752762Y-61334571D01*
X53600381Y-61296476D01*
X53524190Y-61258381D01*
X53448000Y-61182190D01*
X53409905Y-61067904D01*
X53409905Y-60991714D01*
X53448000Y-60877428D01*
X53486095Y-60839333D01*
X53409905Y-60153619D02*
X53409905Y-60306000D01*
X53448000Y-60382190D01*
X53486095Y-60420285D01*
X53600381Y-60496476D01*
X53752762Y-60534571D01*
X54057524Y-60534571D01*
X54133714Y-60496476D01*
X54171810Y-60458381D01*
X54209905Y-60382190D01*
X54209905Y-60229809D01*
X54171810Y-60153619D01*
X54133714Y-60115523D01*
X54057524Y-60077428D01*
X53867048Y-60077428D01*
X53790857Y-60115523D01*
X53752762Y-60153619D01*
X53714667Y-60229809D01*
X53714667Y-60382190D01*
X53752762Y-60458381D01*
X53790857Y-60496476D01*
X53867048Y-60534571D01*
D13*
X48029905Y-65730381D02*
X48029905Y-64730381D01*
X48268000Y-64730381D01*
X48410858Y-64778000D01*
X48506096Y-64873238D01*
X48553715Y-64968476D01*
X48601334Y-65158952D01*
X48601334Y-65301810D01*
X48553715Y-65492286D01*
X48506096Y-65587524D01*
X48410858Y-65682762D01*
X48268000Y-65730381D01*
X48029905Y-65730381D01*
X48982286Y-64825619D02*
X49029905Y-64778000D01*
X49125143Y-64730381D01*
X49363239Y-64730381D01*
X49458477Y-64778000D01*
X49506096Y-64825619D01*
X49553715Y-64920857D01*
X49553715Y-65016095D01*
X49506096Y-65158952D01*
X48934667Y-65730381D01*
X49553715Y-65730381D01*
X48029905Y-60142381D02*
X48029905Y-59142381D01*
X48268000Y-59142381D01*
X48410858Y-59190000D01*
X48506096Y-59285238D01*
X48553715Y-59380476D01*
X48601334Y-59570952D01*
X48601334Y-59713810D01*
X48553715Y-59904286D01*
X48506096Y-59999524D01*
X48410858Y-60094762D01*
X48268000Y-60142381D01*
X48029905Y-60142381D01*
X48934667Y-59142381D02*
X49553715Y-59142381D01*
X49220381Y-59523333D01*
X49363239Y-59523333D01*
X49458477Y-59570952D01*
X49506096Y-59618571D01*
X49553715Y-59713810D01*
X49553715Y-59951905D01*
X49506096Y-60047143D01*
X49458477Y-60094762D01*
X49363239Y-60142381D01*
X49077524Y-60142381D01*
X48982286Y-60094762D01*
X48934667Y-60047143D01*
%LPC*%
D16*
X48500000Y-48500000D03*
D17*
X56000000Y-62250000D03*
X56000000Y-60250000D03*
X60706000Y-67294000D03*
X60706000Y-65294000D03*
D18*
X61750000Y-59000000D03*
X63750000Y-59000000D03*
D17*
X68300000Y-57600000D03*
X68300000Y-59600000D03*
D19*
X62230000Y-52070000D03*
X62230000Y-72070000D03*
D20*
X58420000Y-62360000D03*
X58420000Y-59560000D03*
D21*
X48260000Y-57150000D03*
D22*
X48260000Y-54610000D03*
D21*
X48260000Y-69850000D03*
D22*
X48260000Y-67310000D03*
D18*
X56800000Y-64800000D03*
X58800000Y-64800000D03*
X58800000Y-66800000D03*
X56800000Y-66800000D03*
X62754000Y-65532000D03*
X64754000Y-65532000D03*
X62754000Y-67564000D03*
X64754000Y-67564000D03*
X62754000Y-69596000D03*
X64754000Y-69596000D03*
X66564000Y-65532000D03*
X68564000Y-65532000D03*
D17*
X68326000Y-63484000D03*
X68326000Y-61484000D03*
D18*
X66564000Y-67564000D03*
X68564000Y-67564000D03*
X60944000Y-69596000D03*
X58944000Y-69596000D03*
D23*
X60755000Y-61480000D03*
X60755000Y-61980000D03*
X60755000Y-62480000D03*
X60755000Y-62980000D03*
D24*
X61480000Y-63705000D03*
X61980000Y-63705000D03*
X62480000Y-63705000D03*
X62980000Y-63705000D03*
D23*
X63705000Y-62980000D03*
X63705000Y-62480000D03*
X63705000Y-61980000D03*
X63705000Y-61480000D03*
D24*
X62980000Y-60755000D03*
X62480000Y-60755000D03*
X61980000Y-60755000D03*
X61480000Y-60755000D03*
D25*
X62680000Y-62680000D03*
X62680000Y-61780000D03*
X61780000Y-62680000D03*
X61780000Y-61780000D03*
D26*
X52250000Y-68300000D03*
X52250000Y-65700000D03*
D27*
X77470000Y-59690000D03*
D28*
X77470000Y-62230000D03*
X77470000Y-64770000D03*
X77470000Y-67310000D03*
X77470000Y-69850000D03*
D16*
X76500000Y-48500000D03*
X76500000Y-76500000D03*
X48500000Y-76500000D03*
D17*
X52324000Y-61706000D03*
X52324000Y-59706000D03*
D29*
X47468000Y-63754000D03*
X50068000Y-63754000D03*
X50068000Y-61468000D03*
X47468000Y-61468000D03*
M02*
